REM DIRINDEX 1\2,1\3,1\4
REM DIRNAME cjc141,folder01,folder02,folder03
TITLE ""
FILE "Track31.mp3" MP3
  TRACK 01 AUDIO
    TITLE "0:"
    INDEX 01 00:00:00
  TRACK 02 AUDIO
    TITLE "4:cjc141_169"
    INDEX 01 00:00:05
  TRACK 03 AUDIO
    TITLE "2:cjc141_170"
    INDEX 01 00:01:50
  TRACK 04 AUDIO
    TITLE "0:"
    INDEX 01 00:17:10
  TRACK 05 AUDIO
    TITLE "3:cjc141_171"
    INDEX 01 00:18:62
  TRACK 06 AUDIO
    TITLE "0:"
    INDEX 01 00:33:32
